<svg width="38" height="38" viewBox="0 0 38 38" fill="none" xmlns="http://www.w3.org/2000/svg">
<path fill-rule="evenodd" clip-rule="evenodd" d="M9.99285 26.5066H6.99035C6.16123 26.5066 5.4891 25.8345 5.4891 25.0054C5.4891 24.1762 6.16123 23.5041 6.99035 23.5041H9.99285V19.0004H6.99035C6.16123 19.0004 5.4891 18.3282 5.4891 17.4991C5.4891 16.67 6.16123 15.9979 6.99035 15.9979H9.99285V9.99285H0.985352V37.0154H23.5041V31.0104H9.99285V26.5066ZM12.9954 0.985352V28.0079H37.0154V0.985352H12.9954ZM31.0104 17.4991H19.0004C18.1712 17.4991 17.4991 16.827 17.4991 15.9979C17.4991 15.1687 18.1712 14.4966 19.0004 14.4966H31.0104C31.8395 14.4966 32.5116 15.1687 32.5116 15.9979C32.5116 16.827 31.8395 17.4991 31.0104 17.4991ZM31.0104 9.99285H19.0004C18.1712 9.99285 17.4991 9.32072 17.4991 8.4916C17.4991 7.66249 18.1712 6.99035 19.0004 6.99035H31.0104C31.8395 6.99035 32.5116 7.66249 32.5116 8.4916C32.5116 9.32072 31.8395 9.99285 31.0104 9.99285Z" fill="#10284A"/>
</svg>
