<svg width="39" height="40" viewBox="0 0 39 40" fill="none" xmlns="http://www.w3.org/2000/svg">
<path fill-rule="evenodd" clip-rule="evenodd" d="M15.7181 19.5813L1.89758 12.6709C0.716553 12.0804 0.0390625 11.1636 0.0390625 10.1553C0.0390625 9.14703 0.716248 8.22998 1.89758 7.63916L15.7181 0.72937C16.6583 0.259094 17.887 0 19.1776 0C20.4681 0 21.6968 0.259094 22.6373 0.72937L36.4572 7.63916C37.6385 8.22998 38.316 9.14703 38.316 10.1553C38.316 11.1636 37.6382 12.0804 36.4569 12.6712L22.637 19.5813C21.6968 20.0516 20.4681 20.3107 19.1776 20.3107C17.887 20.3107 16.6583 20.0516 15.7181 19.5813ZM36.4572 17.485L34.2639 16.3882L23.6853 21.6779C22.4258 22.3077 20.8249 22.6544 19.1776 22.6544C17.5302 22.6544 15.9293 22.3077 14.6698 21.6779L4.09119 16.3882L1.89758 17.485C0.716553 18.0756 0.0390625 18.9926 0.0390625 20.0009C0.0390625 21.0089 0.716553 21.926 1.89758 22.5165L15.7181 29.4269C16.6882 29.9118 17.9327 30.1544 19.1776 30.1544C20.4224 30.1541 21.6672 29.9118 22.637 29.4269L36.4572 22.5168C37.6385 21.926 38.316 21.0092 38.316 20.0009C38.316 18.9926 37.6382 18.0756 36.4572 17.485ZM36.4572 27.3303L34.2639 26.2338L23.6856 31.5231C22.4283 32.1518 20.8273 32.4982 19.1776 32.4985C17.5281 32.4985 15.9271 32.1521 14.6698 31.5234L4.09088 26.2338L1.89758 27.3303C0.716248 27.9211 0.0390625 28.8382 0.0390625 29.8465C0.0390625 30.8545 0.716553 31.7715 1.89758 32.3621L15.7181 39.2725C16.6882 39.7574 17.9327 40 19.1776 40C20.4224 39.9997 21.6672 39.7574 22.637 39.2725L36.4572 32.3624C37.6385 31.7715 38.316 30.8548 38.316 29.8465C38.316 28.8382 37.6385 27.9211 36.4572 27.3303Z" fill="#10284A"/>
</svg>
