<svg width="38" height="38" viewBox="0 0 38 38" fill="none" xmlns="http://www.w3.org/2000/svg">
<path fill-rule="evenodd" clip-rule="evenodd" d="M18.9997 0.802734C8.94979 0.802734 0.802734 8.94979 0.802734 18.9997C0.802734 29.0496 8.94979 37.1967 18.9997 37.1967C29.0496 37.1967 37.1967 29.0496 37.1967 18.9997C37.1967 8.94979 29.0496 0.802734 18.9997 0.802734ZM25.9146 20.2128L17.1042 26.2785C16.3475 26.8185 15.2963 26.6429 14.7563 25.8863C14.5837 25.6444 14.4782 25.3612 14.4505 25.0654V12.934C14.5371 12.0085 15.3577 11.3284 16.2833 11.4151C16.5791 11.4428 16.8623 11.5483 17.1042 11.7209L25.9146 17.7866C26.5845 18.1999 26.7926 19.0781 26.3792 19.7481C26.2627 19.9371 26.1035 20.0963 25.9146 20.2128H25.9146Z" fill="#10284A"/>
</svg>
